<?xml version="1.0" encoding="UTF-8"?>
<svg width="2583px" height="509px" viewBox="0 0 2583 509" version="1.1" xmlns="http://www.w3.org/2000/svg" xmlns:xlink="http://www.w3.org/1999/xlink">
    <!-- Generator: Sketch 54.1 (76490) - https://sketchapp.com -->
    <title>Clouds Level 2</title>
    <desc>Created with Sketch.</desc>
    <g id="Symbols" stroke="none" stroke-width="1" fill="none" fill-rule="evenodd">
        <g id="Clouds/WebWide" transform="translate(-2.000000, -74.000000)" fill="#E7F1FA" fill-rule="nonzero">
            <g id="Clouds-Level-2" transform="translate(2.000000, 74.000000)">
                <circle id="Oval-3" cx="1402.5" cy="215.5" r="92.5"></circle>
                <circle id="Oval-3" cx="1589" cy="229" r="73"></circle>
                <circle id="Oval-3" cx="1674.5" cy="245.5" r="44.5"></circle>
                <circle id="Oval-3" cx="1750.5" cy="229.5" r="44.5"></circle>
                <circle id="Oval-3" cx="1834.5" cy="202.5" r="71.5"></circle>
                <circle id="Oval-3" cx="1943" cy="140" r="79"></circle>
                <circle id="Oval-3" cx="2059" cy="210" r="79"></circle>
                <circle id="Oval-3" cx="1226.5" cy="92.5" r="92.5"></circle>
                <circle id="Oval-3" cx="665.5" cy="274.5" r="92.5"></circle>
                <circle id="Oval-3" cx="536" cy="309" r="73"></circle>
                <circle id="Oval-3-Copy-35" cx="1759" cy="319" r="73"></circle>
                <circle id="Oval-3" cx="1787.5" cy="290.5" r="44.5"></circle>
                <circle id="Oval-3" cx="1224" cy="291" r="217"></circle>
                <circle id="Oval-3" cx="2307.5" cy="302.5" r="169.5"></circle>
                <circle id="Oval-3-Copy-36" cx="852.5" cy="330.5" r="125.5"></circle>
                <circle id="Oval-3-Copy-38" cx="1495.5" cy="289.5" r="125.5"></circle>
                <circle id="Oval-3-Copy-39" cx="1923.5" cy="310.5" r="125.5"></circle>
                <circle id="Oval-3-Copy-41" cx="1593.5" cy="366.5" r="125.5"></circle>
                <circle id="Oval-3-Copy-42" cx="157.5" cy="316.5" r="125.5"></circle>
                <circle id="Oval-3-Copy-43" cx="2457.5" cy="148.5" r="125.5"></circle>
                <circle id="Oval-3-Copy-44" cx="881.5" cy="371.5" r="125.5"></circle>
                <circle id="Oval-3-Copy-45" cx="630.5" cy="383.5" r="125.5"></circle>
                <circle id="Oval-3-Copy-46" cx="408.5" cy="326.5" r="125.5"></circle>
                <circle id="Oval-3-Copy-47" cx="253.5" cy="274.5" r="125.5"></circle>
                <circle id="Oval-3" cx="1398" cy="375" r="79"></circle>
                <circle id="Oval-3-Copy-48" cx="79" cy="179" r="79"></circle>
                <circle id="Oval-3" cx="283" cy="403" r="79"></circle>
                <circle id="Oval-3-Copy-49" cx="1007" cy="370" r="79"></circle>
                <circle id="Oval-3" cx="2075" cy="241" r="151"></circle>
                <circle id="Oval-3" cx="1017.5" cy="219.5" r="92.5"></circle>
            </g>
        </g>
    </g>
</svg>