<?xml version="1.0" encoding="UTF-8"?>
<svg width="2909px" height="548px" viewBox="0 0 2909 548" version="1.1" xmlns="http://www.w3.org/2000/svg" xmlns:xlink="http://www.w3.org/1999/xlink">
    <!-- Generator: Sketch 54.1 (76490) - https://sketchapp.com -->
    <title>Clouds Level 1 White</title>
    <desc>Created with Sketch.</desc>
    <g id="Symbols" stroke="none" stroke-width="1" fill="none" fill-rule="evenodd">
        <g id="Clouds/WebWide" transform="translate(121.000000, -74.000000)" fill="#FFFFFF" fill-rule="nonzero">
            <g id="Clouds-Level-1-White" transform="translate(-121.000000, 74.000000)">
                <circle id="Oval-3" cx="121" cy="166" r="114"></circle>
                <circle id="Oval-3-Copy" cx="1409" cy="181" r="114"></circle>
                <path d="M396,548 C458.960461,548 742,504.960461 742,442 C742,379.039539 458.960461,320 396,320 C333.039539,320 121,373.039539 121,436 C121,498.960461 333.039539,548 396,548 Z" id="Oval-3"></path>
                <path d="M1805,548 C1867.96046,548 2172,492.960461 2172,430 C2172,367.039539 1867.96046,320 1805,320 C1742.03954,320 1447.5,371.039539 1447.5,434 C1447.5,496.960461 1742.03954,548 1805,548 Z" id="Oval-3-Copy-2"></path>
                <circle id="Oval-3" cx="313" cy="342" r="114"></circle>
                <circle id="Oval-3-Copy-3" cx="1671" cy="342" r="114"></circle>
                <circle id="Oval-3" cx="573" cy="380" r="126"></circle>
                <circle id="Oval-3-Copy-4" cx="1931" cy="380" r="126"></circle>
                <circle id="Oval-3" cx="773" cy="394" r="114"></circle>
                <circle id="Oval-3-Copy-5" cx="2131" cy="394" r="114"></circle>
                <circle id="Oval-3" cx="886.5" cy="362.5" r="61.5"></circle>
                <circle id="Oval-3-Copy-6" cx="2244.5" cy="362.5" r="61.5"></circle>
                <circle id="Oval-3" cx="887.5" cy="446.5" r="61.5"></circle>
                <circle id="Oval-3-Copy-7" cx="2245.5" cy="446.5" r="61.5"></circle>
                <circle id="Oval-3" cx="1067" cy="343" r="114"></circle>
                <circle id="Oval-3-Copy-8" cx="2358" cy="310" r="114"></circle>
                <path d="M926,548 C988.960461,548 1233,492.960461 1233,430 C1233,367.039539 988.960461,320 926,320 C863.039539,320 612,381.039539 612,444 C612,506.960461 863.039539,548 926,548 Z" id="Oval-3"></path>
                <circle id="Oval-3-Copy-9" cx="2284" cy="434" r="114"></circle>
                <path d="M1105,548 C1167.96046,548 1419,492.960461 1419,430 C1419,367.039539 1167.96046,320 1105,320 C1042.03954,320 812.5,381.039539 812.5,444 C812.5,506.960461 1042.03954,548 1105,548 Z" id="Oval-3"></path>
                <path d="M2463,548 C2525.96046,548 2818.83797,504.960461 2818.83797,442 C2818.83797,379.039539 2525.96046,320 2463,320 C2400.03954,320 2066,381.039539 2066,444 C2066,476.446016 2154.7125,503.070387 2249.32023,521.256514 C2338.29579,538.359987 2432.48555,548 2463,548 Z" id="Oval-3-Copy-10"></path>
                <circle id="Oval-3" cx="1287" cy="434" r="114"></circle>
                <circle id="Oval-3" cx="1386" cy="434" r="114"></circle>
                <circle id="Oval-3-Copy-13" cx="2744" cy="166" r="114"></circle>
                <circle id="Oval-3" cx="1272" cy="356" r="114"></circle>
                <circle id="Oval-3-Copy-14" cx="2630" cy="356" r="114"></circle>
                <circle id="Oval-3" cx="1437" cy="322" r="114"></circle>
                <circle id="Oval-3-Copy-15" cx="2795" cy="322" r="114"></circle>
                <circle id="Oval-3" cx="1295" cy="219" r="114"></circle>
                <circle id="Oval-3-Copy-16" cx="2653" cy="219" r="114"></circle>
                <circle id="Oval-3" cx="1168" cy="259" r="51"></circle>
                <circle id="Oval-3-Copy-17" cx="2514" cy="305" r="51"></circle>
                <circle id="Oval-3-Copy-18" cx="2681" cy="87" r="51"></circle>
                <circle id="Oval-3-Copy-19" cx="2244.5" cy="295.5" r="47.5"></circle>
                <circle id="Oval-3" cx="812.5" cy="333.5" r="47.5"></circle>
                <circle id="Oval-3-Copy-20" cx="2169.5" cy="301.5" r="47.5"></circle>
                <circle id="Oval-3" cx="684.5" cy="332.5" r="47.5"></circle>
                <circle id="Oval-3-Copy-21" cx="2077.5" cy="295.5" r="47.5"></circle>
                <circle id="Oval-3-Copy-22" cx="1593" cy="114" r="114"></circle>
                <circle id="Oval-3" cx="223.5" cy="319.5" r="223.5"></circle>
                <circle id="Oval-3-Copy-23" cx="1581.5" cy="319.5" r="223.5"></circle>
                <circle id="Oval-3-Copy-24" cx="1978" cy="295" r="99"></circle>
                <circle id="Oval-3" cx="455.5" cy="319.5" r="65.5"></circle>
                <circle id="Oval-3-Copy-25" cx="1813.5" cy="319.5" r="65.5"></circle>
            </g>
        </g>
    </g>
</svg>