<?xml version="1.0" encoding="UTF-8"?>
<svg width="2923px" height="549px" viewBox="0 0 2923 549" version="1.1" xmlns="http://www.w3.org/2000/svg" xmlns:xlink="http://www.w3.org/1999/xlink">
    <!-- Generator: Sketch 54.1 (76490) - https://sketchapp.com -->
    <title>Clouds Level 4</title>
    <desc>Created with Sketch.</desc>
    <g id="Symbols" stroke="none" stroke-width="1" fill="none" fill-rule="evenodd">
        <g id="Clouds/WebWide" transform="translate(135.000000, 0.000000)" fill="#60C7F2" fill-rule="nonzero">
            <g id="Clouds-Level-4" transform="translate(-135.000000, 0.000000)">
                <circle id="Oval-3" cx="2723.5" cy="157.5" r="157.5"></circle>
                <circle id="Oval-3-Copy-69" cx="2765.5" cy="360.5" r="157.5"></circle>
                <circle id="Oval-3-Copy-27" transform="translate(1701.500000, 201.500000) scale(-1, 1) translate(-1701.500000, -201.500000) " cx="1701.5" cy="201.5" r="157.5"></circle>
                <circle id="Oval-3" cx="2550.5" cy="201.5" r="87.5"></circle>
                <circle id="Oval-3-Copy-28" transform="translate(1400.500000, 164.500000) scale(-1, 1) translate(-1400.500000, -164.500000) " cx="1400.5" cy="164.5" r="87.5"></circle>
                <circle id="Oval-3" cx="2393.5" cy="169.5" r="61.5"></circle>
                <circle id="Oval-3-Copy-29" transform="translate(1971.000000, 202.000000) scale(-1, 1) translate(-1971.000000, -202.000000) " cx="1971" cy="202" r="90"></circle>
                <circle id="Oval-3" cx="2274" cy="125" r="106"></circle>
                <circle id="Oval-3-Copy-57" cx="2274" cy="220" r="106"></circle>
                <circle id="Oval-3-Copy-30" transform="translate(1859.000000, 275.000000) scale(-1, 1) translate(-1859.000000, -275.000000) " cx="1859" cy="275" r="106"></circle>
                <circle id="Oval-3" cx="2113" cy="343" r="138"></circle>
                <circle id="Oval-3-Copy-31" transform="translate(1791.500000, 349.500000) scale(-1, 1) translate(-1791.500000, -349.500000) " cx="1791.5" cy="349.5" r="102.5"></circle>
                <circle id="Oval-3" cx="2463.5" cy="231.5" r="102.5"></circle>
                <circle id="Oval-3-Copy-32" transform="translate(1938.500000, 359.500000) scale(-1, 1) translate(-1938.500000, -359.500000) " cx="1938.5" cy="359.5" r="102.5"></circle>
                <circle id="Oval-3" cx="2491.5" cy="365.5" r="183.5"></circle>
                <circle id="Oval-3-Copy-33" transform="translate(2117.500000, 161.500000) scale(-1, 1) translate(-2117.500000, -161.500000) " cx="2117.5" cy="161.5" r="117.5"></circle>
                <circle id="Oval-3" cx="2274" cy="352" r="77"></circle>
                <circle id="Oval-3-Copy-56" cx="1488" cy="242" r="77"></circle>
                <circle id="Oval-3-Copy-34" transform="translate(1544.000000, 125.000000) scale(-1, 1) translate(-1544.000000, -125.000000) " cx="1544" cy="125" r="77"></circle>
                <circle id="Oval-3" cx="562" cy="259" r="106"></circle>
                <circle id="Path" cx="562" cy="268" r="106"></circle>
                <circle id="Oval-3" cx="276" cy="171" r="106"></circle>
                <circle id="Oval-3" cx="138" cy="203" r="138"></circle>
                <circle id="Oval-3-Copy-37" cx="1157" cy="171" r="138"></circle>
                <circle id="Path" cx="186" cy="153" r="138"></circle>
                <circle id="Path-Copy-2" cx="1295" cy="177" r="138"></circle>
                <circle id="Oval-3" cx="240.5" cy="341.5" r="102.5"></circle>
                <circle id="Path" cx="240.5" cy="341.5" r="102.5"></circle>
                <circle id="Path-Copy-3" cx="716.5" cy="293.5" r="102.5"></circle>
                <circle id="Oval-3" cx="400.5" cy="341.5" r="102.5"></circle>
                <circle id="Path" cx="400.5" cy="341.5" r="102.5"></circle>
                <circle id="Path-Copy-4" cx="876.5" cy="309.5" r="102.5"></circle>
                <circle id="Oval-3" cx="550.5" cy="342.5" r="102.5"></circle>
                <circle id="Oval-3-Copy-40" cx="1156.5" cy="214.5" r="102.5"></circle>
                <circle id="Path" cx="550.5" cy="342.5" r="102.5"></circle>
                <circle id="Path-Copy-5" cx="1026.5" cy="256.5" r="102.5"></circle>
                <circle id="Oval-3" cx="425.5" cy="239.5" r="77.5"></circle>
                <circle id="Path" cx="425.5" cy="239.5" r="77.5"></circle>
            </g>
        </g>
    </g>
</svg>