<?xml version="1.0" encoding="UTF-8"?>
<svg width="2763px" height="444px" viewBox="0 0 2763 444" version="1.1" xmlns="http://www.w3.org/2000/svg" xmlns:xlink="http://www.w3.org/1999/xlink">
    <!-- Generator: Sketch 54.1 (76490) - https://sketchapp.com -->
    <title>Clouds Level 3</title>
    <desc>Created with Sketch.</desc>
    <g id="Symbols" stroke="none" stroke-width="1" fill="none" fill-rule="evenodd">
        <g id="Clouds/WebWide" transform="translate(107.000000, -60.000000)" fill="#C6E0EE" fill-rule="nonzero">
            <g id="Clouds-Level-3" transform="translate(-107.000000, 60.000000)">
                <circle id="Oval-3" cx="933.5" cy="215.5" r="74.5"></circle>
                <circle id="Oval-3" cx="820.5" cy="253.5" r="57.5"></circle>
                <circle id="Oval-3" cx="721.5" cy="221.5" r="57.5"></circle>
                <circle id="Oval-3" cx="639.5" cy="211.5" r="36.5"></circle>
                <circle id="Oval-3-Copy-54" cx="1625.5" cy="97.5" r="45.5"></circle>
                <circle id="Oval-3-Copy-65" cx="2516.5" cy="109.5" r="45.5"></circle>
                <circle id="Oval-3-Copy-67" cx="2562.5" cy="166.5" r="45.5"></circle>
                <circle id="Oval-3-Copy-66" cx="2590.5" cy="88.5" r="45.5"></circle>
                <circle id="Oval-3-Copy-55" cx="1852" cy="207" r="76"></circle>
                <circle id="Oval-3-Copy-64" cx="2674.5" cy="98.5" r="88.5"></circle>
                <circle id="Oval-3" cx="538.5" cy="223.5" r="76.5"></circle>
                <circle id="Oval-3-Copy-58" cx="2004.5" cy="164.5" r="76.5"></circle>
                <circle id="Oval-3-Copy-59" cx="2107.5" cy="133.5" r="76.5"></circle>
                <circle id="Oval-3" cx="422" cy="298" r="123"></circle>
                <circle id="Oval-3-Copy-50" cx="1060" cy="223" r="123"></circle>
                <circle id="Oval-3-Copy-51" cx="1340" cy="155" r="123"></circle>
                <circle id="Oval-3" cx="1271.5" cy="88.5" r="88.5"></circle>
                <circle id="Oval-3" cx="1158.5" cy="98.5" r="57.5"></circle>
                <circle id="Oval-3" cx="1100.5" cy="168.5" r="57.5"></circle>
                <circle id="Oval-3" cx="1235.5" cy="150.5" r="104.5"></circle>
                <circle id="Oval-3-Copy-52" cx="1502" cy="164" r="123"></circle>
                <circle id="Oval-3-Copy-53" cx="1671" cy="169" r="123"></circle>
                <circle id="Oval-3" cx="615" cy="321" r="123"></circle>
                <circle id="Oval-3-Copy-60" cx="1852" cy="248" r="123"></circle>
                <circle id="Oval-3-Copy-61" cx="2128" cy="243" r="123"></circle>
                <circle id="Oval-3-Copy-62" cx="2257" cy="180" r="123"></circle>
                <circle id="Oval-3-Copy-63" cx="2422" cy="221" r="123"></circle>
                <circle id="Oval-3-Copy-68" cx="2640" cy="207" r="123"></circle>
                <circle id="Oval-3" cx="785" cy="292" r="109"></circle>
                <circle id="Oval-3" cx="861" cy="251" r="76"></circle>
                <circle id="Oval-3" cx="369" cy="216" r="123"></circle>
                <circle id="Oval-3-Copy-70" cx="123" cy="131" r="123"></circle>
                <circle id="Oval-3-Copy-71" cx="246" cy="198" r="123"></circle>
            </g>
        </g>
    </g>
</svg>